<?xml version="1.0" encoding="UTF-8"?>
<svg version="1.1" xmlns="http://www.w3.org/2000/svg" width="380" height="290">
<path d="M0 0 C3.70812914 2.12865675 6.69879642 4.6224886 9.87890625 7.45703125 C11.11625915 8.54012399 12.3545506 9.62214539 13.59375 10.703125 C14.20202637 11.23534668 14.81030273 11.76756836 15.43701172 12.31591797 C17.89413541 14.43931598 20.41377668 16.48088834 22.94140625 18.51953125 C27.31792252 22.07065191 31.49972085 25.79000523 35.6640625 29.5859375 C38.26103018 31.89390723 40.92544638 34.08758988 43.62890625 36.26953125 C48.40425027 40.131448 52.9280831 44.20877349 57.4453125 48.3671875 C60.11015791 50.75910422 62.8397245 53.02458009 65.62890625 55.26953125 C84.77774556 70.86412557 84.77774556 70.86412557 86.19140625 78.83203125 C86.38454836 85.09841976 85.02445066 88.78143155 81.19140625 93.83203125 C79.17951656 95.72397088 77.20434645 97.47663197 75.06640625 99.20703125 C74.48729492 99.68615967 73.90818359 100.16528809 73.31152344 100.65893555 C69.25669521 104.00232166 65.15453271 107.28737912 61.03515625 110.55078125 C57.30487574 113.54320408 53.62568672 116.595781 49.94140625 119.64453125 C44.10252215 124.47303677 38.20316446 129.2059734 32.22192383 133.85644531 C28.27326503 136.94181389 24.43421853 140.13455169 20.62890625 143.39453125 C16.18956666 147.19063626 11.68285411 150.87784172 7.06640625 154.45703125 C6.24934204 155.09620483 6.24934204 155.09620483 5.41577148 155.74829102 C0.16369748 159.77845054 -4.31554561 160.64227486 -10.80859375 159.83203125 C-15.92622193 157.17844627 -18.98565317 154.30085299 -20.80859375 148.83203125 C-20.89098544 146.98592593 -20.91602734 145.13697961 -20.90625 143.2890625 C-20.90141602 141.6793457 -20.90141602 141.6793457 -20.89648438 140.03710938 C-20.88391602 138.3577832 -20.88391602 138.3577832 -20.87109375 136.64453125 C-20.86658203 135.51337891 -20.86207031 134.38222656 -20.85742188 133.21679688 C-20.84562873 130.42182198 -20.82917025 127.62695305 -20.80859375 124.83203125 C-21.41723267 124.82838562 -22.02587158 124.82473999 -22.6529541 124.82098389 C-29.01283351 124.77903139 -35.37199982 124.70959671 -41.73144531 124.62451172 C-44.10181531 124.59636236 -46.47227813 124.57511796 -48.84277344 124.56103516 C-52.25894481 124.53952274 -55.6740073 124.49282731 -59.08984375 124.44140625 C-60.66844177 124.43956329 -60.66844177 124.43956329 -62.27893066 124.43768311 C-68.87275131 124.30771833 -73.18549471 123.34687327 -78.80859375 119.83203125 C-82.36895632 115.23801503 -82.26694236 110.15363303 -82.5 104.5390625 C-82.62477065 101.61280203 -82.62477065 101.61280203 -84.80859375 98.83203125 C-87.75033831 97.85144973 -89.66959939 97.70229109 -92.7355957 97.69018555 C-93.73706131 97.68315109 -94.73852692 97.67611664 -95.77033997 97.66886902 C-96.85159653 97.66470474 -97.93285309 97.66054047 -99.046875 97.65625 C-101.33399358 97.63305189 -103.62110299 97.60893456 -105.90820312 97.58398438 C-109.5159316 97.54886728 -113.12332255 97.51952296 -116.73120117 97.50610352 C-120.2118419 97.4906213 -123.69149535 97.45040837 -127.171875 97.40625 C-128.7846508 97.40911263 -128.7846508 97.40911263 -130.43000793 97.41203308 C-136.50465572 97.31293877 -140.23127672 96.97541732 -144.80859375 92.83203125 C-147.79859713 87.74902551 -148.94813507 82.63525094 -147.80859375 76.83203125 C-145.74206411 72.97778946 -142.85101107 70.46105828 -138.80859375 68.83203125 C-136.29077148 68.48486328 -136.29077148 68.48486328 -133.4921875 68.33984375 C-132.48091797 68.27410156 -131.46964844 68.20835938 -130.42773438 68.140625 C-128.30318155 68.01802956 -126.17815002 67.90347077 -124.05273438 67.796875 C-123.04275391 67.72855469 -122.03277344 67.66023438 -120.9921875 67.58984375 C-120.06978271 67.53973145 -119.14737793 67.48961914 -118.19702148 67.43798828 C-115.67015497 67.02081207 -115.67015497 67.02081207 -113.99414062 64.9440918 C-112.47839491 62.24377957 -112.63264078 60.58473584 -112.87109375 57.51953125 C-113.02697645 51.96713783 -112.1849089 49.23999825 -108.80859375 44.83203125 C-105.15739265 42.24945536 -101.16111063 42.5187397 -96.85888672 42.49731445 C-96.06172241 42.48566254 -95.26455811 42.47401062 -94.4432373 42.46200562 C-91.81243986 42.42606455 -89.18173439 42.40416866 -86.55078125 42.3828125 C-84.72282086 42.36155953 -82.89486864 42.33959233 -81.06692505 42.31694031 C-77.23882673 42.27156144 -73.41073738 42.23276079 -69.58251953 42.19897461 C-64.6682035 42.15536968 -59.75414981 42.0986423 -54.84002495 42.03742695 C-51.0672299 41.99131693 -47.29439304 41.95049446 -43.52151871 41.91145897 C-41.70895138 41.89237456 -39.89639705 41.87201221 -38.08385849 41.85036659 C-35.55576 41.82129182 -33.02769334 41.79893542 -30.49951172 41.77856445 C-29.74622589 41.76876053 -28.99294006 41.7589566 -28.21682739 41.74885559 C-23.03751295 41.71757165 -23.03751295 41.71757165 -20.80859375 42.83203125 C-20.81906738 41.99542969 -20.82954102 41.15882812 -20.84033203 40.296875 C-20.87465393 37.15837645 -20.89960868 34.01997438 -20.91845703 30.88134766 C-20.93332254 28.86875006 -20.95875075 26.85623937 -20.984375 24.84375 C-21.06617828 8.56489674 -21.06617828 8.56489674 -16.43359375 2.95703125 C-11.18448551 -1.29224685 -6.60516548 -2.74679343 0 0 Z M-54.80859375 66.83203125 C-54.80859375 67.16203125 -54.80859375 67.49203125 -54.80859375 67.83203125 C-51.17859375 67.83203125 -47.54859375 67.83203125 -43.80859375 67.83203125 C-43.80859375 67.50203125 -43.80859375 67.17203125 -43.80859375 66.83203125 C-47.43859375 66.83203125 -51.06859375 66.83203125 -54.80859375 66.83203125 Z M-33.80859375 97.83203125 C-33.80859375 98.16203125 -33.80859375 98.49203125 -33.80859375 98.83203125 C-32.15859375 98.83203125 -30.50859375 98.83203125 -28.80859375 98.83203125 C-28.80859375 98.50203125 -28.80859375 98.17203125 -28.80859375 97.83203125 C-30.45859375 97.83203125 -32.10859375 97.83203125 -33.80859375 97.83203125 Z " fill="#D58AF1" transform="translate(236.80859375,50.16796875)"/>
<path d="M0 0 C0.68172775 -0.00189835 1.36345551 -0.00379669 2.06584167 -0.00575256 C4.31199762 -0.00944794 6.55782804 0.00122333 8.80395508 0.01245117 C10.36525942 0.01364346 11.92656449 0.01409603 13.48786926 0.01383972 C16.75530505 0.01540227 20.02263091 0.02367667 23.29003906 0.03710938 C27.48689051 0.05414114 31.68362169 0.0579224 35.88050365 0.05716419 C39.10172177 0.05743546 42.32291337 0.06290897 45.5441227 0.07016563 C47.09234733 0.073356 48.64057497 0.07532056 50.18880272 0.07605934 C52.34597322 0.07821665 54.50301352 0.08694624 56.66015625 0.09765625 C58.50404182 0.10337395 58.50404182 0.10337395 60.38517761 0.10920715 C63.13598633 0.24291992 63.13598633 0.24291992 64.13598633 1.24291992 C64.31702263 3.84271993 64.41412547 6.39065773 64.44848633 8.99291992 C64.49199219 10.06799805 64.49199219 10.06799805 64.53637695 11.16479492 C64.57997139 14.81331399 64.28518564 16.99919478 62.36645508 20.13354492 C57.27614922 24.94749442 52.21923675 24.59914973 45.51098633 24.72143555 C40.69644619 24.89581377 37.30797826 25.58858374 33.13598633 28.24291992 C29.65422873 32.82417992 28.51612487 36.28981756 28.81958008 42.03588867 C29.5646388 47.23290319 31.01809372 50.3579216 35.13598633 53.61791992 C39.99157664 56.24803134 44.1203218 56.44559215 49.52270508 56.55932617 C50.3397139 56.58010727 51.15672272 56.60088837 51.99848938 56.62229919 C54.60673667 56.68765071 57.21508408 56.74661266 59.82348633 56.80541992 C61.59237686 56.84861884 63.3612573 56.89223357 65.13012695 56.9362793 C69.46531096 57.04331736 73.80059562 57.14462536 78.13598633 57.24291992 C78.13598633 54.93291992 78.13598633 52.62291992 78.13598633 50.24291992 C78.46598633 50.24291992 78.79598633 50.24291992 79.13598633 50.24291992 C79.13598633 51.89291992 79.13598633 53.54291992 79.13598633 55.24291992 C79.79598633 55.24291992 80.45598633 55.24291992 81.13598633 55.24291992 C81.46598633 56.23291992 81.79598633 57.22291992 82.13598633 58.24291992 C80.81598633 58.57291992 79.49598633 58.90291992 78.13598633 59.24291992 C78.21977539 60.02795898 78.30356445 60.81299805 78.38989258 61.62182617 C78.94892172 67.38902551 79.2995166 72.55454972 78.13598633 78.24291992 C78.79598633 78.57291992 79.45598633 78.90291992 80.13598633 79.24291992 C81.30492837 85.32141855 81.18808085 91.31132775 81.07348633 97.48510742 C80.93882213 100.20428627 80.93882213 100.20428627 82.13598633 102.24291992 C81.80598633 103.23291992 81.47598633 104.22291992 81.13598633 105.24291992 C80.14598633 105.24291992 79.15598633 105.24291992 78.13598633 105.24291992 C78.13598633 97.32291992 78.13598633 89.40291992 78.13598633 81.24291992 C74.54723633 81.28932617 70.95848633 81.33573242 67.26098633 81.38354492 C63.76930148 81.41477687 60.27763245 81.43904405 56.78588867 81.46264648 C54.36687202 81.48271057 51.94790357 81.50996835 49.52905273 81.54467773 C46.04374265 81.59342333 42.55907617 81.61594157 39.07348633 81.63354492 C37.99921387 81.65419006 36.92494141 81.67483521 35.81811523 81.69610596 C29.12113256 81.69808872 24.83229737 80.8410238 19.13598633 77.24291992 C15.57562376 72.64890371 15.67763772 67.5645217 15.44458008 61.94995117 C15.31980943 59.0236907 15.31980943 59.0236907 13.13598633 56.24291992 C10.19424177 55.2623384 8.27498068 55.11317976 5.20898438 55.10107422 C4.20751877 55.09403976 3.20605316 55.08700531 2.17424011 55.07975769 C1.09298355 55.07559341 0.01172699 55.07142914 -1.10229492 55.06713867 C-3.3894135 55.04394056 -5.67652291 55.01982323 -7.96362305 54.99487305 C-11.57135152 54.95975596 -15.17874248 54.93041163 -18.78662109 54.91699219 C-22.26726182 54.90150997 -25.74691527 54.86129704 -29.22729492 54.81713867 C-30.84007072 54.8200013 -30.84007072 54.8200013 -32.48542786 54.82292175 C-38.56007564 54.72382744 -42.28669664 54.38630599 -46.86401367 50.24291992 C-49.85401705 45.15991418 -51.00355499 40.04613961 -49.86401367 34.24291992 C-47.79748403 30.38867813 -44.90643099 27.87194695 -40.86401367 26.24291992 C-38.34619141 25.89575195 -38.34619141 25.89575195 -35.54760742 25.75073242 C-34.53633789 25.68499023 -33.52506836 25.61924805 -32.4831543 25.55151367 C-30.35860147 25.42891824 -28.23356995 25.31435944 -26.1081543 25.20776367 C-25.09817383 25.13944336 -24.08819336 25.07112305 -23.04760742 25.00073242 C-22.12520264 24.95062012 -21.20279785 24.90050781 -20.25244141 24.84887695 C-17.72557489 24.43170074 -17.72557489 24.43170074 -16.04956055 22.35498047 C-14.53381483 19.65466824 -14.6880607 17.99562451 -14.92651367 14.93041992 C-15.08239637 9.37802651 -14.24032882 6.65088692 -10.86401367 2.24291992 C-7.36305026 -0.1469535 -4.15874899 -0.00481169 0 0 Z " fill="#B18DFA" transform="translate(138.864013671875,92.757080078125)"/>
<path d="M0 0 C3.70812914 2.12865675 6.69879642 4.6224886 9.87890625 7.45703125 C11.11625915 8.54012399 12.3545506 9.62214539 13.59375 10.703125 C14.20202637 11.23534668 14.81030273 11.76756836 15.43701172 12.31591797 C17.89413541 14.43931598 20.41377668 16.48088834 22.94140625 18.51953125 C27.31792252 22.07065191 31.49972085 25.79000523 35.6640625 29.5859375 C38.26103018 31.89390723 40.92544638 34.08758988 43.62890625 36.26953125 C48.40425027 40.131448 52.9280831 44.20877349 57.4453125 48.3671875 C60.11015791 50.75910422 62.8397245 53.02458009 65.62890625 55.26953125 C84.77774556 70.86412557 84.77774556 70.86412557 86.19140625 78.83203125 C86.10502728 81.89368602 85.76901884 84.82566213 85.19140625 87.83203125 C84.86140625 87.83203125 84.53140625 87.83203125 84.19140625 87.83203125 C84.19140625 83.87203125 84.19140625 79.91203125 84.19140625 75.83203125 C83.53140625 75.83203125 82.87140625 75.83203125 82.19140625 75.83203125 C80.56640625 73.33203125 80.56640625 73.33203125 79.19140625 70.83203125 C78.20140625 71.49203125 77.21140625 72.15203125 76.19140625 72.83203125 C75.86140625 71.84203125 75.53140625 70.85203125 75.19140625 69.83203125 C74.20140625 69.17203125 73.21140625 68.51203125 72.19140625 67.83203125 C72.85140625 67.83203125 73.51140625 67.83203125 74.19140625 67.83203125 C73.69640625 67.37828125 73.20140625 66.92453125 72.69140625 66.45703125 C71.19140625 64.83203125 71.19140625 64.83203125 71.19140625 62.83203125 C70.59328125 62.68765625 69.99515625 62.54328125 69.37890625 62.39453125 C67.62990221 61.94478735 65.90463602 61.40310784 64.19140625 60.83203125 C63.20140625 61.32703125 63.20140625 61.32703125 62.19140625 61.83203125 C61.53140625 61.17203125 60.87140625 60.51203125 60.19140625 59.83203125 C61.18140625 58.84203125 61.18140625 58.84203125 62.19140625 57.83203125 C61.47577359 55.81580795 61.47577359 55.81580795 60.19140625 53.83203125 C57.24500873 52.55525899 55.20004728 52.86496806 52.19140625 53.83203125 C51.86140625 52.84203125 51.53140625 51.85203125 51.19140625 50.83203125 C51.85140625 50.83203125 52.51140625 50.83203125 53.19140625 50.83203125 C53.19140625 49.84203125 53.19140625 48.85203125 53.19140625 47.83203125 C52.53140625 47.50203125 51.87140625 47.17203125 51.19140625 46.83203125 C50.55203125 46.15140625 49.91265625 45.47078125 49.25390625 44.76953125 C47.29861686 42.48969352 47.29861686 42.48969352 44.19140625 42.83203125 C43.94390625 42.21328125 43.69640625 41.59453125 43.44140625 40.95703125 C41.96919183 38.45426673 40.87391797 37.83797315 38.19140625 36.83203125 C37.53140625 36.83203125 36.87140625 36.83203125 36.19140625 36.83203125 C35.69640625 33.86203125 35.69640625 33.86203125 35.19140625 30.83203125 C32.88140625 30.17203125 30.57140625 29.51203125 28.19140625 28.83203125 C28.19140625 27.84203125 28.19140625 26.85203125 28.19140625 25.83203125 C26.87140625 25.17203125 25.55140625 24.51203125 24.19140625 23.83203125 C24.19140625 23.17203125 24.19140625 22.51203125 24.19140625 21.83203125 C23.20140625 21.83203125 22.21140625 21.83203125 21.19140625 21.83203125 C20.20140625 19.35703125 20.20140625 19.35703125 19.19140625 16.83203125 C18.20140625 16.83203125 17.21140625 16.83203125 16.19140625 16.83203125 C16.19140625 16.17203125 16.19140625 15.51203125 16.19140625 14.83203125 C15.42828125 14.74953125 14.66515625 14.66703125 13.87890625 14.58203125 C10.59404754 13.66532649 10.09255063 12.55976015 8.19140625 9.83203125 C7.51078125 9.50203125 6.83015625 9.17203125 6.12890625 8.83203125 C4.19140625 7.83203125 4.19140625 7.83203125 3.25390625 5.83203125 C1.79303958 3.08216457 0.07835163 2.74369821 -2.80859375 1.83203125 C-3.13859375 2.82203125 -3.46859375 3.81203125 -3.80859375 4.83203125 C-4.79859375 3.84203125 -4.79859375 3.84203125 -5.80859375 2.83203125 C-6.79859375 3.16203125 -7.78859375 3.49203125 -8.80859375 3.83203125 C-9.79859375 3.83203125 -10.78859375 3.83203125 -11.80859375 3.83203125 C-28.2979948 21.29139707 -19.5305398 77.56936298 -19.80859375 99.83203125 C-24.93142134 99.93148877 -30.05367729 100.00377534 -35.17724609 100.05175781 C-36.91725464 100.07177647 -38.65719674 100.09900011 -40.39697266 100.13378906 C-42.90934721 100.18274077 -45.4208265 100.20509712 -47.93359375 100.22265625 C-48.7016333 100.24330139 -49.46967285 100.26394653 -50.26098633 100.28521729 C-55.8838735 100.28751247 -60.09904019 98.93817563 -64.80859375 95.83203125 C-68.84582625 91.69127997 -69.92989454 88.18506585 -70.12109375 82.51953125 C-70.04235006 77.73191462 -68.93875084 74.47131028 -65.80859375 70.83203125 C-61.00246995 66.66672396 -57.67185089 66.69410955 -51.37109375 66.89453125 C-45.4391496 67.07678127 -41.90750451 66.65849766 -37.12890625 63.12109375 C-35.42858633 61.46101809 -34.83878659 60.33186887 -34.69506836 57.95263672 C-34.70030518 57.20900879 -34.70554199 56.46538086 -34.7109375 55.69921875 C-34.71416016 54.89355469 -34.71738281 54.08789062 -34.72070312 53.2578125 C-34.72908203 52.41605469 -34.73746094 51.57429688 -34.74609375 50.70703125 C-34.75060547 49.85753906 -34.75511719 49.00804687 -34.75976562 48.1328125 C-34.77156501 46.03252216 -34.78950069 43.93226795 -34.80859375 41.83203125 C-32.85033502 41.80508274 -30.89197149 41.78565907 -28.93359375 41.76953125 C-27.29777344 41.75212891 -27.29777344 41.75212891 -25.62890625 41.734375 C-22.80859375 41.83203125 -22.80859375 41.83203125 -20.80859375 42.83203125 C-20.8243042 41.57712891 -20.8243042 41.57712891 -20.84033203 40.296875 C-20.87465393 37.15837645 -20.89960868 34.01997438 -20.91845703 30.88134766 C-20.93332254 28.86875006 -20.95875075 26.85623937 -20.984375 24.84375 C-21.06617828 8.56489674 -21.06617828 8.56489674 -16.43359375 2.95703125 C-11.18448551 -1.29224685 -6.60516548 -2.74679343 0 0 Z M-33.80859375 97.83203125 C-33.80859375 98.16203125 -33.80859375 98.49203125 -33.80859375 98.83203125 C-32.15859375 98.83203125 -30.50859375 98.83203125 -28.80859375 98.83203125 C-28.80859375 98.50203125 -28.80859375 98.17203125 -28.80859375 97.83203125 C-30.45859375 97.83203125 -32.10859375 97.83203125 -33.80859375 97.83203125 Z " fill="#FADDFC" transform="translate(236.80859375,50.16796875)"/>
<path d="M0 0 C5.38697265 3.15927719 8.64594858 7.10972074 10.640625 13.09375 C11.35426268 19.9922476 9.83777295 24.54127303 5.640625 30.09375 C0.73901967 34.55421085 -4.37475361 35.44980244 -10.7890625 35.375 C-15.92324758 34.81320467 -19.13006821 32.3895058 -22.671875 28.65625 C-26.22916852 23.25443391 -27.24047694 18.50376663 -26.359375 12.09375 C-24.46295817 6.68465198 -20.91716255 3.39087291 -16.359375 0.09375 C-11.10193829 -1.6587289 -5.23639507 -2.01133056 0 0 Z " fill="#CAB4F9" transform="translate(69.359375,115.90625)"/>
<path d="M0 0 C3.70812914 2.12865675 6.69879642 4.6224886 9.87890625 7.45703125 C11.11625915 8.54012399 12.3545506 9.62214539 13.59375 10.703125 C14.20202637 11.23534668 14.81030273 11.76756836 15.43701172 12.31591797 C17.89413541 14.43931598 20.41377668 16.48088834 22.94140625 18.51953125 C27.31792252 22.07065191 31.49972085 25.79000523 35.6640625 29.5859375 C38.26103018 31.89390723 40.92544638 34.08758988 43.62890625 36.26953125 C48.40425027 40.131448 52.9280831 44.20877349 57.4453125 48.3671875 C60.11015791 50.75910422 62.8397245 53.02458009 65.62890625 55.26953125 C84.77774556 70.86412557 84.77774556 70.86412557 86.19140625 78.83203125 C86.10502728 81.89368602 85.76901884 84.82566213 85.19140625 87.83203125 C84.86140625 87.83203125 84.53140625 87.83203125 84.19140625 87.83203125 C84.19140625 83.87203125 84.19140625 79.91203125 84.19140625 75.83203125 C83.53140625 75.83203125 82.87140625 75.83203125 82.19140625 75.83203125 C80.56640625 73.33203125 80.56640625 73.33203125 79.19140625 70.83203125 C78.20140625 71.49203125 77.21140625 72.15203125 76.19140625 72.83203125 C75.86140625 71.84203125 75.53140625 70.85203125 75.19140625 69.83203125 C73.70640625 68.84203125 73.70640625 68.84203125 72.19140625 67.83203125 C72.85140625 67.83203125 73.51140625 67.83203125 74.19140625 67.83203125 C73.69640625 67.37828125 73.20140625 66.92453125 72.69140625 66.45703125 C71.19140625 64.83203125 71.19140625 64.83203125 71.19140625 62.83203125 C70.59328125 62.68765625 69.99515625 62.54328125 69.37890625 62.39453125 C67.62990221 61.94478735 65.90463602 61.40310784 64.19140625 60.83203125 C63.20140625 61.32703125 63.20140625 61.32703125 62.19140625 61.83203125 C61.53140625 61.17203125 60.87140625 60.51203125 60.19140625 59.83203125 C61.18140625 58.84203125 61.18140625 58.84203125 62.19140625 57.83203125 C61.47577359 55.81580795 61.47577359 55.81580795 60.19140625 53.83203125 C57.24500873 52.55525899 55.20004728 52.86496806 52.19140625 53.83203125 C51.86140625 52.84203125 51.53140625 51.85203125 51.19140625 50.83203125 C51.85140625 50.83203125 52.51140625 50.83203125 53.19140625 50.83203125 C53.19140625 49.84203125 53.19140625 48.85203125 53.19140625 47.83203125 C52.53140625 47.50203125 51.87140625 47.17203125 51.19140625 46.83203125 C50.55203125 46.15140625 49.91265625 45.47078125 49.25390625 44.76953125 C47.29861686 42.48969352 47.29861686 42.48969352 44.19140625 42.83203125 C43.94390625 42.21328125 43.69640625 41.59453125 43.44140625 40.95703125 C41.96919183 38.45426673 40.87391797 37.83797315 38.19140625 36.83203125 C37.53140625 36.83203125 36.87140625 36.83203125 36.19140625 36.83203125 C35.69640625 33.86203125 35.69640625 33.86203125 35.19140625 30.83203125 C32.88140625 30.17203125 30.57140625 29.51203125 28.19140625 28.83203125 C28.19140625 27.84203125 28.19140625 26.85203125 28.19140625 25.83203125 C26.87140625 25.17203125 25.55140625 24.51203125 24.19140625 23.83203125 C24.19140625 23.17203125 24.19140625 22.51203125 24.19140625 21.83203125 C23.20140625 21.83203125 22.21140625 21.83203125 21.19140625 21.83203125 C20.53140625 20.18203125 19.87140625 18.53203125 19.19140625 16.83203125 C18.20140625 16.83203125 17.21140625 16.83203125 16.19140625 16.83203125 C16.19140625 16.17203125 16.19140625 15.51203125 16.19140625 14.83203125 C15.42828125 14.74953125 14.66515625 14.66703125 13.87890625 14.58203125 C10.59404754 13.66532649 10.09255063 12.55976015 8.19140625 9.83203125 C7.17046875 9.33703125 7.17046875 9.33703125 6.12890625 8.83203125 C4.19140625 7.83203125 4.19140625 7.83203125 3.25390625 5.83203125 C1.79303958 3.08216457 0.07835163 2.74369821 -2.80859375 1.83203125 C-3.13859375 2.82203125 -3.46859375 3.81203125 -3.80859375 4.83203125 C-4.46859375 4.17203125 -5.12859375 3.51203125 -5.80859375 2.83203125 C-6.79859375 3.16203125 -7.78859375 3.49203125 -8.80859375 3.83203125 C-9.79859375 3.83203125 -10.78859375 3.83203125 -11.80859375 3.83203125 C-16.61705854 8.92334691 -16.91086576 12.97444415 -17.34375 19.78515625 C-17.38672714 20.44537781 -17.42970428 21.10559937 -17.47398376 21.78582764 C-17.60979714 23.88435781 -17.74051607 25.98316944 -17.87109375 28.08203125 C-17.96255408 29.50913619 -18.05434727 30.93621984 -18.14648438 32.36328125 C-18.37104337 35.85262627 -18.5910361 39.34224191 -18.80859375 42.83203125 C-21.08643035 39.41527634 -21.06536054 38.14843009 -21.07421875 34.1328125 C-21.07679688 33.00552734 -21.079375 31.87824219 -21.08203125 30.71679688 C-21.07429687 29.53794922 -21.0665625 28.35910156 -21.05859375 27.14453125 C-21.06632813 25.98501953 -21.0740625 24.82550781 -21.08203125 23.63085938 C-21.04772015 8.54255268 -21.04772015 8.54255268 -16.43359375 2.95703125 C-11.18448551 -1.29224685 -6.60516548 -2.74679343 0 0 Z " fill="#F4C3E8" transform="translate(236.80859375,50.16796875)"/>
<path d="M0 0 C3.52864183 2.06392258 5.41235516 3.28059473 6.73828125 7.16015625 C7.42473588 11.31355344 7.4065792 13.32704132 5.1875 17 C1.8580118 20.04410349 -0.43653793 20.33409966 -4.9609375 20.29296875 C-8.13134567 19.83745033 -9.8192402 18.24684343 -12 16 C-13.53214888 12.93570224 -13.22938548 10.3834358 -13 7 C-11.73001681 4.14253783 -10.7161997 2.51862737 -8.1875 0.6875 C-5.17760008 -0.25846855 -3.14801964 -0.44072275 0 0 Z " fill="#FA8FD7" transform="translate(136,159)"/>
<path d="M0 0 C0 0.99 0 1.98 0 3 C-4.22657765 5.81771843 -8.44840173 5.42086579 -13.37109375 5.56640625 C-15.25129285 5.64546398 -17.12719073 5.81565188 -19 6 C-19.33 6.66 -19.66 7.32 -20 8 C-20 7.34 -20 6.68 -20 6 C-22.91517292 7.07401108 -24.77810176 7.77810176 -27 10 C-27 9.34 -27 8.68 -27 8 C-27.66 8 -28.32 8 -29 8 C-29.06058594 8.68707031 -29.12117188 9.37414062 -29.18359375 10.08203125 C-29.26738281 10.98308594 -29.35117188 11.88414063 -29.4375 12.8125 C-29.51871094 13.70582031 -29.59992188 14.59914062 -29.68359375 15.51953125 C-30 18 -30 18 -31 21 C-30.34 21.66 -29.68 22.32 -29 23 C-29 23.99 -29 24.98 -29 26 C-28.34 26 -27.68 26 -27 26 C-27 26.66 -27 27.32 -27 28 C-25.68 28.33 -24.36 28.66 -23 29 C-23 29.66 -23 30.32 -23 31 C-7.16 31 8.68 31 25 31 C25 31.33 25 31.66 25 32 C17.98922119 32.10157378 10.97863275 32.17153861 3.96728516 32.21972656 C1.58309843 32.23981893 -0.80103915 32.26709781 -3.18505859 32.30175781 C-6.61568338 32.35037859 -10.04565555 32.37299312 -13.4765625 32.390625 C-14.53928375 32.41127014 -15.602005 32.43191528 -16.69692993 32.45318604 C-22.77808137 32.45502222 -26.42202218 32.15365924 -31 28 C-33.99000338 22.91699426 -35.13954132 17.80321969 -34 12 C-31.93226376 8.14350781 -29.04124744 5.63511299 -25 4 C-22.46630859 3.62109375 -22.46630859 3.62109375 -19.6484375 3.4375 C-18.63265625 3.36273438 -17.616875 3.28796875 -16.5703125 3.2109375 C-14.4323255 3.06979899 -12.2943043 2.92917771 -10.15625 2.7890625 C-9.14304687 2.71429688 -8.12984375 2.63953125 -7.0859375 2.5625 C-5.6944751 2.47162109 -5.6944751 2.47162109 -4.27490234 2.37890625 C-1.80679454 2.19434332 -1.80679454 2.19434332 0 0 Z " fill="#D3C3F6" transform="translate(123,115)"/>
<path d="M0 0 C1.02215355 -0.00262848 1.02215355 -0.00262848 2.06495667 -0.00531006 C4.32189465 -0.00971864 6.57875455 -0.00679441 8.83569336 -0.00341797 C10.39985672 -0.00409122 11.96401998 -0.00506142 13.52818298 -0.00631714 C16.80753576 -0.0077927 20.08686132 -0.00564381 23.36621094 -0.00097656 C27.57880598 0.00472535 31.79133738 0.00143791 36.00393009 -0.00454903 C39.23372379 -0.00815445 42.46350229 -0.00701622 45.69329643 -0.00442123 C47.24710536 -0.00375216 48.80091564 -0.00457972 50.35472298 -0.00690079 C52.52167571 -0.00942752 54.68852385 -0.00558669 56.85546875 0 C58.09075821 0.00079559 59.32604767 0.00159119 60.59877014 0.00241089 C63.36303711 0.12939453 63.36303711 0.12939453 64.36303711 1.12939453 C64.43617277 3.65988855 64.45551238 6.1624429 64.42553711 8.69189453 C64.42102539 9.4028125 64.41651367 10.11373047 64.41186523 10.84619141 C64.40004575 12.60729466 64.38210974 14.36835489 64.36303711 16.12939453 C64.03303711 16.12939453 63.70303711 16.12939453 63.36303711 16.12939453 C63.36303711 11.50939453 63.36303711 6.88939453 63.36303711 2.12939453 C54.56594824 2.23749848 45.76893522 2.34959948 36.97198868 2.46873379 C32.88719595 2.52389312 28.80239597 2.57730186 24.7175293 2.62670898 C20.77526448 2.67445575 16.8330851 2.72680213 12.89092255 2.78233528 C11.38706338 2.80271215 9.88318082 2.82143285 8.37928009 2.83846855 C6.27254288 2.86261616 4.1659658 2.89265612 2.05932617 2.92407227 C0.2606308 2.94738869 0.2606308 2.94738869 -1.57440186 2.97117615 C-4.1130847 3.10232988 -6.22140498 3.38529437 -8.63696289 4.12939453 C-8.63696289 3.13939453 -8.63696289 2.14939453 -8.63696289 1.12939453 C-5.74325042 -0.31746171 -3.2328624 0.0020808 0 0 Z " fill="#BBA1E9" transform="translate(138.636962890625,92.87060546875)"/>
<path d="M0 0 C1.16894204 6.07849863 1.05209452 12.06840782 0.9375 18.2421875 C0.8028358 20.96136635 0.8028358 20.96136635 2 23 C1.505 24.485 1.505 24.485 1 26 C0.01 26 -0.98 26 -2 26 C-2 17.75 -2 9.5 -2 1 C-18.5 1 -35 1 -52 1 C-52 0.67 -52 0.34 -52 0 C-46.80799847 -0.14452122 -41.61594261 -0.28684123 -36.42382812 -0.42724609 C-34.66274443 -0.47516455 -32.90167612 -0.52365274 -31.140625 -0.57275391 C-2.72759688 -1.36379844 -2.72759688 -1.36379844 0 0 Z " fill="#9465DE" transform="translate(219,172)"/>
<path d="M0 0 C0.33 1.32 0.66 2.64 1 4 C1.66 4 2.32 4 3 4 C1.41201096 8.31318312 -1.8933133 10.82236575 -5.3125 13.6875 C-6.16618164 14.43483398 -6.16618164 14.43483398 -7.03710938 15.19726562 C-10.27033235 17.93306968 -12.62718113 19.64722099 -17 20 C-16.8125 17.6875 -16.8125 17.6875 -16 15 C-11.96551724 12 -11.96551724 12 -9 12 C-7.0549 9.08235 -6.54723683 7.37462715 -6 4 C-4.35 3.67 -2.7 3.34 -1 3 C-0.67 2.01 -0.34 1.02 0 0 Z " fill="#B475F2" transform="translate(273,172)"/>
<path d="M0 0 C-0.47050781 1.16402344 -0.94101563 2.32804687 -1.42578125 3.52734375 C-3.70137788 10.35413363 -3.81955514 17.43683098 -4.1875 24.5625 C-4.26906037 25.96686248 -4.3517342 27.37116076 -4.43554688 28.77539062 C-4.63462417 32.18312548 -4.82246238 35.59108654 -5 39 C-7.2778366 35.58324509 -7.25676679 34.31639884 -7.265625 30.30078125 C-7.26949219 28.60985352 -7.26949219 28.60985352 -7.2734375 26.88476562 C-7.26570312 25.70591797 -7.25796875 24.52707031 -7.25 23.3125 C-7.25773438 22.15298828 -7.26546875 20.99347656 -7.2734375 19.79882812 C-7.2592418 13.55627033 -7.10391467 7.91200022 -5 2 C-2 0 -2 0 0 0 Z " fill="#EAD0EA" transform="translate(223,54)"/>
<path d="M0 0 C3.77991191 1.71814178 5.24974616 3.14944154 7 7 C7.57645543 10.95283726 7.35948461 12.46077309 5.125 15.8125 C2.21164633 18.81154054 1.46480239 18.96190144 -2.8125 19.3125 C-6.13227327 19.28232024 -6.99044521 19.0060988 -9.9375 17.125 C-12.76956333 14.20711657 -12.99067486 13.5408583 -13.0625 9.375 C-13.041875 8.26125 -13.02125 7.1475 -13 6 C-12.67 6 -12.34 6 -12 6 C-12 7.98 -12 9.96 -12 12 C-11.34 12 -10.68 12 -10 12 C-10 12.99 -10 13.98 -10 15 C-5.545 15.99 -5.545 15.99 -1 17 C-0.67 16.01 -0.34 15.02 0 14 C0.99 14.33 1.98 14.66 3 15 C3.33 13.35 3.66 11.7 4 10 C3.34 9.67 2.68 9.34 2 9 C1.3671875 6.93359375 1.3671875 6.93359375 0.875 4.4375 C0.70742187 3.61121094 0.53984375 2.78492188 0.3671875 1.93359375 C0.24601563 1.29550781 0.12484375 0.65742188 0 0 Z " fill="#F29DD6" transform="translate(136,160)"/>
<path d="M0 0 C0.54269531 0.34933594 1.08539063 0.69867188 1.64453125 1.05859375 C2.35996094 1.51363281 3.07539063 1.96867188 3.8125 2.4375 C4.87404297 3.11619141 4.87404297 3.11619141 5.95703125 3.80859375 C10.28978809 6.33534487 14.51837475 6.21391512 19.38671875 6.31640625 C20.20372757 6.33718735 21.02073639 6.35796844 21.86250305 6.37937927 C24.47075034 6.44473079 27.07909775 6.50369273 29.6875 6.5625 C31.45639054 6.60569892 33.22527097 6.64931365 34.99414062 6.69335938 C39.32932463 6.80039743 43.66460929 6.90170544 48 7 C48 4.69 48 2.38 48 0 C48.33 0 48.66 0 49 0 C49 1.65 49 3.3 49 5 C49.66 5 50.32 5 51 5 C51.495 6.485 51.495 6.485 52 8 C48.61981469 9.04005702 45.5219721 9.08004482 42 9 C41.67 9.66 41.34 10.32 41 11 C40.34 11 39.68 11 39 11 C39 10.01 39 9.02 39 8 C38.09757568 8.01571045 37.19515137 8.0314209 36.26538086 8.04760742 C32.89015866 8.09899354 29.51535729 8.1364741 26.13989258 8.16479492 C24.68409632 8.17980313 23.22834468 8.20021633 21.77270508 8.22631836 C19.66997211 8.26305676 17.56784115 8.2798056 15.46484375 8.29296875 C13.57173462 8.31653442 13.57173462 8.31653442 11.64038086 8.34057617 C7.36542085 7.94063189 4.77454674 7.013787 1 5 C0.0625 2.3125 0.0625 2.3125 0 0 Z " fill="#9968E6" transform="translate(169,143)"/>
<path d="M0 0 C0.66 0 1.32 0 2 0 C2.8171241 5.71986867 3.10897147 11.34938591 3.125 17.125 C3.12951172 17.79337891 3.13402344 18.46175781 3.13867188 19.15039062 C3.12569351 23.54140283 2.70677495 27.68081972 2 32 C2.66 32 3.32 32 4 32 C3.34 33.32 2.68 34.64 2 36 C1.67 36 1.34 36 1 36 C-0.00013174 31.85758584 -0.11516542 27.98519696 -0.09765625 23.73046875 C-0.0962413 23.04946609 -0.09482635 22.36846344 -0.09336853 21.66682434 C-0.08780298 19.50700353 -0.07525703 17.34728911 -0.0625 15.1875 C-0.05748054 13.71679838 -0.05291841 12.24609512 -0.04882812 10.77539062 C-0.03784488 7.1835596 -0.02060422 3.5917902 0 0 Z " fill="#C37DE7" transform="translate(217,112)"/>
<path d="M0 0 C0.8971875 0.309375 0.8971875 0.309375 1.8125 0.625 C0.50009628 3.60813476 -0.78661576 5.40529394 -3.33984375 7.421875 C-3.95150391 7.90527344 -4.56316406 8.38867188 -5.19335938 8.88671875 C-5.83080078 9.37785156 -6.46824219 9.86898437 -7.125 10.375 C-7.75857422 10.88160156 -8.39214844 11.38820312 -9.04492188 11.91015625 C-13.80612997 15.625 -13.80612997 15.625 -17.1875 15.625 C-16.8575 14.635 -16.5275 13.645 -16.1875 12.625 C-15.5275 12.625 -14.8675 12.625 -14.1875 12.625 C-13.8575 10.975 -13.5275 9.325 -13.1875 7.625 C-12.011875 7.4084375 -12.011875 7.4084375 -10.8125 7.1875 C-8.22328982 6.74701075 -8.22328982 6.74701075 -6.1875 5.625 C-6.043125 4.985625 -5.89875 4.34625 -5.75 3.6875 C-4.88466213 0.51459449 -3.23367392 -0.5543441 0 0 Z " fill="#AF7BF0" transform="translate(253.1875,192.375)"/>
<path d="M0 0 C4.44296417 2.22148208 6.51002029 4.73146336 9 9 C10.29721449 12.89164348 10.13033993 15.89429226 10 20 C9.67 20.66 9.34 21.32 9 22 C8.34 22 7.68 22 7 22 C6.93941406 21.26394531 6.87882812 20.52789062 6.81640625 19.76953125 C6.73261719 18.79371094 6.64882812 17.81789062 6.5625 16.8125 C6.48128906 15.84957031 6.40007812 14.88664063 6.31640625 13.89453125 C6.02333849 11.21350398 5.57296246 8.6337014 5 6 C4.01 5.67 3.02 5.34 2 5 C2 4.34 2 3.68 2 3 C1.34 3 0.68 3 0 3 C0 2.01 0 1.02 0 0 Z " fill="#D2C5F1" transform="translate(70,117)"/>
<path d="M0 0 C0.33 0 0.66 0 1 0 C1.48765108 7.19285339 1.48765108 7.19285339 -0.8125 11 C-3 13 -3 13 -6 13 C-6.66 11.02 -7.32 9.04 -8 7 C-6.20963542 6.05598958 -4.41927083 5.11197917 -2.62890625 4.16796875 C-0.67732013 3.00980201 -0.67732013 3.00980201 0 0 Z " fill="#E2A1EA" transform="translate(320,132)"/>
<path d="M0 0 C0.45375 0.474375 0.9075 0.94875 1.375 1.4375 C2.93258204 3.09027808 2.93258204 3.09027808 5 4 C5 5.32 5 6.64 5 8 C5.62648437 7.98839844 6.25296875 7.97679687 6.8984375 7.96484375 C7.71570313 7.95582031 8.53296875 7.94679687 9.375 7.9375 C10.18710938 7.92589844 10.99921875 7.91429687 11.8359375 7.90234375 C14 8 14 8 16 9 C16 9.66 16 10.32 16 11 C9.59287031 11.51257038 6.01329753 11.13597047 1 7 C0 6 0 6 -0.0625 2.9375 C-0.041875 1.968125 -0.02125 0.99875 0 0 Z " fill="#9E71EA" transform="translate(219,199)"/>
<path d="M0 0 C0.66 0 1.32 0 2 0 C3 3 3 3 2.2578125 4.9375 C1.88398438 5.618125 1.51015625 6.29875 1.125 7 C-1.48260873 11.81404689 -2.09232056 14.53839721 -1 20 C-1.99 20 -2.98 20 -4 20 C-4.738041 6.3667426 -4.738041 6.3667426 0 0 Z " fill="#CDBAF3" transform="translate(128,95)"/>
<path d="M0 0 C-0.474375 1.11375 -0.94875 2.2275 -1.4375 3.375 C-4.013951 10.92205695 -3.75299623 19.10439686 -4 27 C-4.33 27 -4.66 27 -5 27 C-5.28420056 23.25176997 -5.52138363 19.50199803 -5.75 15.75 C-5.83121094 14.68652344 -5.91242188 13.62304688 -5.99609375 12.52734375 C-6.05410156 11.50253906 -6.11210937 10.47773437 -6.171875 9.421875 C-6.2347168 8.47924805 -6.29755859 7.53662109 -6.36230469 6.56542969 C-5.85192334 2.95148952 -3.90014614 0 0 0 Z " fill="#E7A7E0" transform="translate(223,54)"/>
<path d="M0 0 C0.66 0 1.32 0 2 0 C0.52513858 3.6428271 -1.44522515 5.40829113 -4.5625 7.75 C-5.77099609 8.67039063 -5.77099609 8.67039063 -7.00390625 9.609375 C-9 11 -9 11 -10 11 C-10.33 8.69 -10.66 6.38 -11 4 C-8.69 4.33 -6.38 4.66 -4 5 C-4 4.34 -4 3.68 -4 3 C-3.01 3 -2.02 3 -1 3 C-0.67 2.01 -0.34 1.02 0 0 Z " fill="#C892EC" transform="translate(289,164)"/>
<path d="M0 0 C0.33 0 0.66 0 1 0 C2.21715636 5.93363723 2.93703061 12.18890818 1 18 C0.77548542 20.22574335 0.59217122 22.45581519 0.4375 24.6875 C0.35371094 25.86699219 0.26992187 27.04648438 0.18359375 28.26171875 C0.12300781 29.16535156 0.06242188 30.06898437 0 31 C-0.33 31 -0.66 31 -1 31 C-1.09776087 20.61562308 -1.1555538 10.33807949 0 0 Z " fill="#D791E1" transform="translate(218,81)"/>
<path d="M0 0 C2.875 -0.125 2.875 -0.125 6 0 C6.66 0.66 7.32 1.32 8 2 C6.6875 3.5 6.6875 3.5 5 5 C4.01 5 3.02 5 2 5 C2 5.66 2 6.32 2 7 C0.68 6.34 -0.64 5.68 -2 5 C-1.34 3.35 -0.68 1.7 0 0 Z " fill="#C876F5" transform="translate(283,162)"/>
<path d="M0 0 C1.32 0.33 2.64 0.66 4 1 C3.62005832 3.75457718 3.1926367 4.82020574 1.125 6.75 C-1 8 -1 8 -4 8 C-3.67 7.01 -3.34 6.02 -3 5 C-2.34 5 -1.68 5 -1 5 C-0.67 3.35 -0.34 1.7 0 0 Z " fill="#A169ED" transform="translate(240,200)"/>
<path d="M0 0 C2.97 0 5.94 0 9 0 C9.33 0.99 9.66 1.98 10 3 C8.68 2.67 7.36 2.34 6 2 C5.67 2.99 5.34 3.98 5 5 C4.34 4.34 3.68 3.68 3 3 C2.01 3.33 1.02 3.66 0 4 C-0.33 3.34 -0.66 2.68 -1 2 C-0.67 1.34 -0.34 0.68 0 0 Z " fill="#F9C0E3" transform="translate(228,50)"/>
<path d="M0 0 C3.14259906 2.57121742 4.1257681 5.06595646 5 9 C4.87094278 12.03780853 4.49312338 15.00127675 4 18 C3.67 18 3.34 18 3 18 C3 14.04 3 10.08 3 6 C2.34 6 1.68 6 1 6 C0.67 4.02 0.34 2.04 0 0 Z " fill="#F5D2F3" transform="translate(318,120)"/>
<path d="M0 0 C0.66 0 1.32 0 2 0 C2.36630156 3.93774177 2.30233203 5.56539771 0 8.875 C-0.66 9.57625 -1.32 10.2775 -2 11 C-2.66 10.67 -3.32 10.34 -4 10 C-3.525625 9.278125 -3.05125 8.55625 -2.5625 7.8125 C-1.05847097 5.10524774 -0.43400818 3.03805725 0 0 Z " fill="#F1B1DE" transform="translate(141,167)"/>
<path d="M0 0 C0.54269531 0.34933594 1.08539063 0.69867188 1.64453125 1.05859375 C2.35996094 1.51363281 3.07539063 1.96867188 3.8125 2.4375 C4.87404297 3.11619141 4.87404297 3.11619141 5.95703125 3.80859375 C8.08134552 5.14086339 8.08134552 5.14086339 11 6 C11 6.66 11 7.32 11 8 C7.58978257 7.21302675 4.31114834 6.12880057 1 5 C0.67 3.35 0.34 1.7 0 0 Z " fill="#A07CE4" transform="translate(169,143)"/>
<path d="M0 0 C3.94139078 1.66751148 6.7892812 4.22710649 10 7 C8 8 8 8 6.125 8 C2.65229917 6.36578784 1.71070804 3.36031936 0 0 Z " fill="#F8D7ED" transform="translate(254,65)"/>
<path d="M0 0 C-0.99 2.97 -1.98 5.94 -3 9 C-3.99 8.01 -4.98 7.02 -6 6 C-5.875 3.9375 -5.875 3.9375 -5 2 C-2 0 -2 0 0 0 Z " fill="#F2B9E2" transform="translate(223,54)"/>
<path d="M0 0 C0.33 0 0.66 0 1 0 C1 1.98 1 3.96 1 6 C1.66 6 2.32 6 3 6 C3 6.99 3 7.98 3 9 C3.99 9.33 4.98 9.66 6 10 C6 10.66 6 11.32 6 12 C2.83884224 10.63016497 2.0072908 10.0109362 0 7 C-0.07905064 4.66800612 -0.08798769 2.33167378 0 0 Z " fill="#F2B2DD" transform="translate(123,166)"/>
<path d="M0 0 C0.66 0 1.32 0 2 0 C2 0.66 2 1.32 2 2 C2.99 2.33 3.98 2.66 5 3 C4.0409375 3.433125 4.0409375 3.433125 3.0625 3.875 C0.84793921 4.82823451 0.84793921 4.82823451 0 7 C0 6.34 0 5.68 0 5 C-0.66 4.67 -1.32 4.34 -2 4 C-1.34 2.68 -0.68 1.36 0 0 Z " fill="#BA9DF9" transform="translate(94,123)"/>
<path d="M0 0 C0.99 0 1.98 0 3 0 C3 1.65 3 3.3 3 5 C1.68 5.33 0.36 5.66 -1 6 C-1.33 5.01 -1.66 4.02 -2 3 C-1.34 3 -0.68 3 0 3 C0 2.01 0 1.02 0 0 Z " fill="#F5ACE8" transform="translate(290,98)"/>
<path d="M0 0 C0.99 0.33 1.98 0.66 3 1 C-0.465 3.97 -0.465 3.97 -4 7 C-4.66 6.67 -5.32 6.34 -6 6 C-5.67 5.34 -5.34 4.68 -5 4 C-4.34 4 -3.68 4 -3 4 C-2.67 3.01 -2.34 2.02 -2 1 C-1.34 0.67 -0.68 0.34 0 0 Z " fill="#C598EA" transform="translate(271,179)"/>
<path d="M0 0 C0.33 0 0.66 0 1 0 C1 1.98 1 3.96 1 6 C0.34 6 -0.32 6 -1 6 C-1 8.31 -1 10.62 -1 13 C-1.33 13 -1.66 13 -2 13 C-2.05447047 11.58376784 -2.09300508 10.16691809 -2.125 8.75 C-2.14820313 7.96109375 -2.17140625 7.1721875 -2.1953125 6.359375 C-1.9828378 3.79268059 -1.28654105 2.2083933 0 0 Z " fill="#E2D4F8" transform="translate(45,124)"/>
<path d="M0 0 C0.33 1.32 0.66 2.64 1 4 C1.66 4 2.32 4 3 4 C2.67 4.99 2.34 5.98 2 7 C0.35 6.67 -1.3 6.34 -3 6 C-3 4 -3 4 -1 2 C-0.67 1.34 -0.34 0.68 0 0 Z " fill="#BC78F4" transform="translate(273,172)"/>
<path d="M0 0 C0.66 0.33 1.32 0.66 2 1 C2 1.66 2 2.32 2 3 C-0.31 4.32 -2.62 5.64 -5 7 C-3.70700306 4.11562221 -2.34058637 2.12780579 0 0 Z " fill="#D9CEF4" transform="translate(51,117)"/>
<path d="M0 0 C0.99 0.33 1.98 0.66 3 1 C3 2.98 3 4.96 3 7 C2.01 6.67 1.02 6.34 0 6 C0 4.02 0 2.04 0 0 Z " fill="#BD73F4" transform="translate(276,168)"/>
<path d="M0 0 C0.33 0 0.66 0 1 0 C1 1.65 1 3.3 1 5 C1.66 5 2.32 5 3 5 C3.33 5.99 3.66 6.98 4 8 C2.68 8.33 1.36 8.66 0 9 C0 6.03 0 3.06 0 0 Z " fill="#B06DE8" transform="translate(217,143)"/>
<path d="M0 0 C0.33 0 0.66 0 1 0 C1 2.64 1 5.28 1 8 C1.66 8 2.32 8 3 8 C2.34 9.32 1.68 10.64 1 12 C0.67 12 0.34 12 0 12 C0 8.04 0 4.08 0 0 Z " fill="#BB73F2" transform="translate(218,136)"/>
</svg>
